<svg height="480pt" viewBox="0 -8 480 480" width="480pt" xmlns="http://www.w3.org/2000/svg"><g fill="#bddbff"><path d="m64 264h32c4.417969 0 8 3.582031 8 8v32c0 4.417969-3.582031 8-8 8h-32c-4.417969 0-8-3.582031-8-8v-32c0-4.417969 3.582031-8 8-8zm0 0"/><path d="m144 264h32c4.417969 0 8 3.582031 8 8v32c0 4.417969-3.582031 8-8 8h-32c-4.417969 0-8-3.582031-8-8v-32c0-4.417969 3.582031-8 8-8zm0 0"/><path d="m224 168h32c4.417969 0 8 3.582031 8 8v32c0 4.417969-3.582031 8-8 8h-32c-4.417969 0-8-3.582031-8-8v-32c0-4.417969 3.582031-8 8-8zm0 0"/><path d="m144 168h32c4.417969 0 8 3.582031 8 8v32c0 4.417969-3.582031 8-8 8h-32c-4.417969 0-8-3.582031-8-8v-32c0-4.417969 3.582031-8 8-8zm0 0"/><path d="m64 168h32c4.417969 0 8 3.582031 8 8v32c0 4.417969-3.582031 8-8 8h-32c-4.417969 0-8-3.582031-8-8v-32c0-4.417969 3.582031-8 8-8zm0 0"/><path d="m392 72v32h-384v-32c0-17.671875 14.328125-32 32-32h64v16c0 8.835938 7.164062 16 16 16s16-7.164062 16-16v-16h128v16c0 8.835938 7.164062 16 16 16s16-7.164062 16-16v-16h64c17.671875 0 32 14.328125 32 32zm0 0"/><path d="m392.800781 353.359375-2.082031-.558594-19.117188-5.519531-27.601562 20.71875-27.601562-20.71875-21.199219 6.078125c-10.867188 3.105469-19.289063 11.710937-22.160157 22.640625-.667968 2.667969-1.019531 5.410156-1.039062 8.160156v49.761719c43.492188 29.414063 100.507812 29.414063 144 0v-49.761719c.015625-14.296875-9.453125-26.867187-23.199219-30.800781zm0 0"/><path d="m344 232c22.089844 0 40 17.910156 40 40v8h-6.078125c-.644531.027344-1.289063-.027344-1.921875-.160156-5.359375-.578125-10.042969-3.875-12.398438-8.71875l-3.601562-7.121094-11.921875 7.921875c-7.875 5.28125-17.152344 8.097656-26.636719 8.078125h-17.441406v-8c0-22.089844 17.910156-40 40-40zm0 0"/></g><path d="m344 192c-75.109375 0-136 60.890625-136 136s60.890625 136 136 136 136-60.890625 136-136c-.082031-75.074219-60.925781-135.917969-136-136zm-32 251.535156v-59.535156h-16v53.910156c-5.539062-2.453125-10.890625-5.316406-16-8.574218v-45.175782c.023438-10.714844 7.117188-20.128906 17.40625-23.113281l17.394531-4.957031 24.398438 18.308594c2.84375 2.136718 6.757812 2.136718 9.601562 0l24.390625-18.308594 17.402344 4.964844c10.289062 2.976562 17.382812 12.390624 17.40625 23.105468v45.175782c-5.109375 3.257812-10.457031 6.125-16 8.574218v-53.910156h-16v59.535156c-20.917969 5.953125-43.082031 5.953125-64 0zm58.71875-176-3.558594-7.136718c-1.023437-2.054688-2.882812-3.570313-5.101562-4.160157-2.222656-.59375-4.585938-.199219-6.5 1.074219l-11.902344 7.933594c-6.566406 4.386718-14.289062 6.726562-22.183594 6.722656h-9.472656c-.0625-17.675781 14.214844-32.050781 31.886719-32.113281 17.675781-.0625 32.050781 14.214843 32.113281 31.886719-2.289062-.546876-4.21875-2.074219-5.28125-4.175782zm-49.246094 20.464844c11.054688.007812 21.863282-3.265625 31.054688-9.40625l4.382812-2.921875c2.519532 4.445313 6.410156 7.953125 11.089844 10v10.328125c0 13.253906-10.746094 24-24 24s-24-10.746094-24-24v-8zm22.527344 48c2.6875.003906 5.367188-.265625 8-.800781v8.800781c.027344 2.277344 1.03125 4.433594 2.761719 5.921875l-10.761719 8.078125-10.761719-8.078125c1.730469-1.488281 2.734375-3.644531 2.761719-5.921875v-8.800781c2.632812.535156 5.3125.804687 8 .800781zm80 81.191406v-33.03125c-.039062-17.851562-11.855469-33.535156-29-38.496094l-27-7.710937v-10.160156c10.035156-7.492188 15.964844-19.269531 16-31.792969v-8c4.417969 0 8-3.582031 8-8v-8c0-26.507812-21.492188-48-48-48s-48 21.492188-48 48v8c0 4.417969 3.582031 8 8 8v8c.035156 12.523438 5.964844 24.300781 16 31.792969v10.160156l-26.992188 7.710937c-17.152343 4.957032-28.96875 20.644532-29.007812 38.496094v33.03125c-37.085938-33.167968-49.855469-85.78125-32.101562-132.261718 17.753906-46.476563 62.347656-77.179688 112.101562-77.179688s94.347656 30.703125 112.101562 77.179688c17.753907 46.480468 4.984376 99.09375-32.101562 132.261718zm0 0" fill="#3d9ae2"/><path d="m16 344v-232h368v72h16v-112c-.027344-22.082031-17.917969-39.972656-40-40h-56v-8c0-13.253906-10.746094-24-24-24s-24 10.746094-24 24v8h-112v-8c0-13.253906-10.746094-24-24-24s-24 10.746094-24 24v8h-56c-22.082031.027344-39.9726562 17.917969-40 40v272c.0273438 22.082031 17.917969 39.972656 40 40h160v-16h-160c-13.253906 0-24-10.746094-24-24zm256-320c0-4.417969 3.582031-8 8-8s8 3.582031 8 8v32c0 4.417969-3.582031 8-8 8s-8-3.582031-8-8zm-160 0c0-4.417969 3.582031-8 8-8s8 3.582031 8 8v32c0 4.417969-3.582031 8-8 8s-8-3.582031-8-8zm-72 24h56v8c0 13.253906 10.746094 24 24 24s24-10.746094 24-24v-8h112v8c0 13.253906 10.746094 24 24 24s24-10.746094 24-24v-8h56c13.253906 0 24 10.746094 24 24v24h-368v-24c0-13.253906 10.746094-24 24-24zm0 0" fill="#3d9ae2"/><path d="m112 176c0-8.835938-7.164062-16-16-16h-32c-8.835938 0-16 7.164062-16 16v32c0 8.835938 7.164062 16 16 16h32c8.835938 0 16-7.164062 16-16zm-48 32v-32h32v32zm0 0" fill="#3d9ae2"/><path d="m192 176c0-8.835938-7.164062-16-16-16h-32c-8.835938 0-16 7.164062-16 16v32c0 8.835938 7.164062 16 16 16h32c8.835938 0 16-7.164062 16-16zm-48 32v-32h32v32zm0 0" fill="#3d9ae2"/><path d="m272 192v-16c0-8.835938-7.164062-16-16-16h-32c-8.835938 0-16 7.164062-16 16v32c0 8.835938 7.164062 16 16 16h16v-16h-16v-32h32v16zm0 0" fill="#3d9ae2"/><path d="m304 160c-8.835938 0-16 7.164062-16 16v8h16v-8h48c0-8.835938-7.164062-16-16-16zm0 0" fill="#3d9ae2"/><path d="m96 256h-32c-8.835938 0-16 7.164062-16 16v32c0 8.835938 7.164062 16 16 16h32c8.835938 0 16-7.164062 16-16v-32c0-8.835938-7.164062-16-16-16zm-32 48v-32h32v32zm0 0" fill="#3d9ae2"/><path d="m176 256h-32c-8.835938 0-16 7.164062-16 16v32c0 8.835938 7.164062 16 16 16h32c8.835938 0 16-7.164062 16-16v-32c0-8.835938-7.164062-16-16-16zm-32 48v-32h32v32zm0 0" fill="#3d9ae2"/></svg>